<svg width="48" height="49" viewBox="0 0 48 49" fill="none" xmlns="http://www.w3.org/2000/svg">
<g clip-path="url(#clip0_55_40)">
<path d="M1 38.2208C1.30432 37.0726 1.62091 35.9269 1.9105 34.7738C2.83572 31.0963 3.75563 27.4167 4.67022 23.7351C4.88864 22.862 5.34389 22.5071 6.23844 22.5071C18.4275 22.5071 30.6133 22.5071 42.7958 22.5071C43.6855 22.5071 44.1395 22.8755 44.3592 23.7462C45.5486 28.4945 46.7348 33.2428 47.9177 37.9912C48.2294 39.2413 47.6453 39.972 46.3421 39.972H29.9482C30.2354 41.1631 30.509 42.3175 30.7925 43.4681C30.8943 43.882 30.8931 44.4579 31.1606 44.6568C31.4526 44.873 32.0048 44.7416 32.4441 44.7502C32.827 44.7588 33.2098 44.7502 33.5927 44.7502C34.3449 44.7575 34.8824 45.164 35.0431 45.8419C35.1904 46.4657 34.864 47.0699 34.2038 47.4088C34.1549 47.4382 34.1081 47.471 34.0639 47.5071H14.9618C14.9434 47.4837 14.9311 47.4518 14.9078 47.4395C14.1568 47.0576 13.8292 46.4952 13.9814 45.8431C14.147 45.1321 14.6992 44.7502 15.5655 44.7489C16.238 44.7489 16.9153 44.7588 17.5841 44.7391C17.7154 44.7391 17.935 44.6347 17.9596 44.539C18.3461 43.0334 18.7057 41.5205 19.0824 39.9683H18.4934C13.2635 39.9683 8.03367 39.956 2.80382 39.9806C1.96081 39.9806 1.35586 39.735 1 38.9576V38.2208ZM23.1146 32.6321H15.5778C15.3901 34.1536 15.2097 35.6604 15.0146 37.1856H23.1134L23.1146 32.6321ZM25.9246 32.626V37.1844H34.0173C33.8246 35.6444 33.6356 34.1364 33.4454 32.626H25.9246ZM4.14994 37.1893H12.2328C12.4205 35.6665 12.6009 34.1597 12.7985 32.6137C10.3185 32.6137 7.91832 32.6137 5.51814 32.6235C5.45792 32.6336 5.40115 32.6585 5.35296 32.696C5.30476 32.7335 5.26665 32.7825 5.24204 32.8384C4.87146 34.2727 4.51806 35.712 4.14994 37.1893ZM36.7905 37.1831H44.8733C44.5199 35.7709 44.1628 34.3955 43.8389 33.0079C43.764 32.691 43.645 32.5977 43.3223 32.6002C41.1025 32.6161 38.8839 32.6088 36.6653 32.61C36.5316 32.61 36.3966 32.6223 36.2248 32.6321C36.4211 34.1733 36.6064 35.6739 36.7954 37.1831H36.7905ZM23.1084 29.8298V25.2861H16.4957C16.3079 26.8039 16.1214 28.3021 15.9312 29.8298H23.1084ZM33.1031 29.8298C32.9104 28.291 32.7215 26.783 32.5349 25.2861H25.9307V29.8298H33.1031ZM5.99179 29.8298H13.1568C13.3445 28.307 13.5249 26.8002 13.7212 25.2554C11.548 25.2554 9.45341 25.2554 7.35877 25.2652C7.29877 25.2755 7.24226 25.3005 7.19429 25.338C7.14632 25.3755 7.10839 25.4243 7.0839 25.4801C6.70841 26.9194 6.35501 28.3574 5.98689 29.8347L5.99179 29.8298ZM43.0499 29.8298C42.6928 28.4089 42.332 27.0188 42.0044 25.6213C41.9307 25.3106 41.7958 25.2529 41.5074 25.2529C39.5797 25.264 37.6519 25.2529 35.7229 25.2529C35.6002 25.2529 35.4849 25.2689 35.318 25.2812C35.5094 26.815 35.6984 28.323 35.8861 29.8248L43.0499 29.8298ZM28.2622 44.733C27.8941 43.1992 27.526 41.717 27.175 40.2286C27.11 39.9486 26.937 39.9658 26.7333 39.9658C25.4939 39.9658 24.2545 39.9658 23.0152 39.9658H21.9194C21.5267 41.5819 21.1463 43.1452 20.761 44.7318L28.2622 44.733Z" fill="#949494"/>
<path d="M14.716 16.648C13.3008 16.648 11.8805 16.6544 10.454 16.648C10.1689 16.6595 9.88761 16.5797 9.6498 16.42C9.41199 16.2603 9.22977 16.0287 9.12895 15.7581C8.89704 15.2102 8.971 14.6509 9.40724 14.2746C9.72713 14.006 10.1213 13.8448 10.5354 13.8131C11.7677 13.7559 13.0049 13.7915 14.2397 13.7915H14.7411C14.9933 12.1388 15.6387 10.5732 16.6214 9.23021C16.0147 8.62127 15.4155 8.02124 14.8188 7.41866C14.4189 7.01694 14.0178 6.61649 13.6254 6.20715C13.0137 5.57152 12.9861 4.70325 13.549 4.12482C14.1118 3.5464 14.978 3.55784 15.601 4.17694C16.4785 5.05411 17.356 5.94273 18.2222 6.83261C18.3363 6.97233 18.4398 7.12065 18.5318 7.27628C19.8736 6.25898 21.4406 5.59032 23.096 5.32871C23.096 3.86167 23.096 2.42133 23.096 0.979723C23.0836 0.697956 23.157 0.419142 23.3061 0.181059C23.4552 -0.0570243 23.6729 -0.242866 23.9296 -0.351287C24.4624 -0.605539 24.9701 -0.508924 25.4163 -0.130088C25.5839 0.0143672 25.7163 0.196089 25.8032 0.40093C25.8902 0.605772 25.9294 0.828205 25.9177 1.05091C25.9177 2.30311 25.9177 3.5553 25.9177 4.80876V5.31727C27.5459 5.57444 29.0881 6.22883 30.4117 7.22416L33.0316 4.55451C33.1758 4.40831 33.3149 4.25703 33.4654 4.11847C34.0658 3.5642 34.9044 3.56165 35.451 4.10957C35.5845 4.24088 35.6906 4.39802 35.7631 4.57168C35.8356 4.74534 35.8731 4.932 35.8732 5.12059C35.8733 5.30918 35.8361 5.49588 35.7638 5.66963C35.6915 5.84338 35.5855 6.00066 35.4522 6.13214C34.6525 6.9788 33.8226 7.80004 33.0015 8.62382C32.8022 8.8234 32.5716 8.98867 32.3447 9.17809C33.3463 10.5363 34.004 12.1231 34.2601 13.7991C35.7092 13.7991 37.1295 13.7991 38.551 13.7991C38.8357 13.7878 39.1166 13.8677 39.354 14.0274C39.5914 14.1871 39.7731 14.4186 39.8735 14.689C40.1041 15.2395 40.0252 15.7988 39.5889 16.1726C39.269 16.4406 38.8747 16.601 38.4607 16.6315C37.2448 16.6887 36.0238 16.6531 34.8041 16.6531H34.2827C34.141 17.2099 34.0257 17.7489 33.8677 18.2752C33.5945 19.1829 33.1482 19.5071 32.2193 19.5071H16.7994C15.863 19.5071 15.413 19.188 15.1397 18.2892C14.9768 17.7578 14.8602 17.2163 14.716 16.648ZM17.6318 16.648H30.3478C31.5048 16.648 31.5048 16.648 31.5361 15.4823C31.5732 14.4174 31.375 13.3576 30.9561 12.3805C30.5372 11.4033 29.9082 10.5334 29.1151 9.83456C28.322 9.13567 27.3849 8.62543 26.3723 8.34116C25.3597 8.0569 24.2973 8.00579 23.2627 8.19159C19.4319 8.85391 16.7994 12.7732 17.6318 16.6493V16.648Z" fill="#949494"/>
</g>
<defs>
<clipPath id="clip0_55_40">
<rect width="48" height="48.0141" fill="white"/>
</clipPath>
</defs>
</svg>
