<svg width="48" height="49" viewBox="0 0 48 49" fill="none" xmlns="http://www.w3.org/2000/svg">
<g clip-path="url(#clip0_55_43)">
<path d="M36.4545 43.5549C35.1122 43.5549 33.9883 43.0464 33.0487 42.1151C32.6142 41.6876 32.0998 41.5115 31.495 41.6994C31.229 41.7751 30.9893 41.9232 30.8027 42.1273C30.616 42.3314 30.4898 42.5833 30.438 42.855C30.4085 43.0358 30.3967 43.2191 30.4028 43.4022C30.3841 44.4265 30.0304 45.4164 29.3959 46.2206C28.7613 47.0249 27.8808 47.5991 26.889 47.8556C26.7308 47.9071 26.5666 47.9383 26.4005 47.9483C24.7716 47.9483 23.1251 48.0893 21.5173 47.9002C19.2237 47.6312 17.6418 45.6759 17.6113 43.3576C17.6007 42.6236 17.3693 42.047 16.6718 41.7475C15.9742 41.448 15.3975 41.6829 14.8608 42.1891C12.8843 44.0517 10.121 44.0176 8.17616 42.1175C7.39558 41.3635 6.62752 40.5978 5.87199 39.8203C3.98003 37.8767 3.96124 35.1028 5.82971 33.1357C6.31944 32.6189 6.56254 32.0576 6.27481 31.3741C5.98708 30.6906 5.41985 30.4228 4.6788 30.4111C2.03288 30.3629 0.0305343 28.3253 0.00704639 25.6747C-0.0023488 24.5786 -0.0023488 23.4786 0.00704639 22.3746C0.0258368 19.6947 2.02584 17.67 4.69759 17.616C5.60893 17.596 6.17029 17.1885 6.35114 16.3981C6.49207 15.7804 6.22666 15.3106 5.81444 14.8714C4.26541 13.2214 4.01174 10.9219 5.18027 9.07811C5.38779 8.75647 5.62828 8.45734 5.89783 8.18557C6.64005 7.42103 7.39871 6.66942 8.15972 5.92368C10.1445 3.9824 12.9102 3.96243 14.916 5.8767C15.4222 6.35938 15.9918 6.55316 16.6483 6.27717C17.3048 6.00119 17.5878 5.47858 17.6042 4.77512C17.6735 1.95656 19.6723 0.0117576 22.4991 0.0164552C23.8144 0.0164552 25.1439 -0.0598806 26.4392 0.108058C28.7493 0.406355 30.3417 2.33237 30.3993 4.67177C30.3949 4.85476 30.4091 5.03772 30.4416 5.21786C30.7293 6.43102 32.1221 6.79626 33.0699 5.89902C34.5567 4.48974 36.2713 4.09749 38.1773 4.82562C38.7645 5.04993 39.3118 5.45979 39.7874 5.88257C40.6095 6.61422 41.3635 7.41634 42.1304 8.20318C44.0188 10.1398 44.0388 12.9243 42.1715 14.8902C41.6794 15.4081 41.4386 15.9683 41.7264 16.6518C42.0141 17.3353 42.5837 17.6019 43.3235 17.6148C45.9695 17.6571 47.9671 19.6888 47.993 22.3453C48.0035 23.4281 48 24.512 47.993 25.5948C47.9777 28.3418 45.9965 30.3465 43.246 30.4099C42.3852 30.4287 41.8203 30.8514 41.6418 31.6277C41.5009 32.2443 41.7592 32.7152 42.1797 33.1544C43.7311 34.7916 43.9836 37.0957 42.8186 38.9478C42.6223 39.2568 42.3945 39.5445 42.1386 39.8062C41.3603 40.6056 40.5711 41.3952 39.771 42.175C39.3384 42.6148 38.822 42.9636 38.2524 43.2006C37.6828 43.4376 37.0714 43.5581 36.4545 43.5549V43.5549ZM32.0963 38.4251C33.3021 38.4724 34.4448 38.9762 35.293 39.8344C36.0294 40.5508 36.862 40.5496 37.5878 39.8344C38.3371 39.0992 39.0808 38.3574 39.8191 37.6089C40.5297 36.8855 40.5238 36.0564 39.8262 35.3083C38.4063 33.7816 37.9906 32.0294 38.808 30.1045C39.616 28.2032 41.1439 27.2684 43.2061 27.2132C44.1832 27.1873 44.7904 26.5872 44.7974 25.6113C44.8056 24.5614 44.8033 23.5115 44.7974 22.4615C44.7915 21.4116 44.2008 20.8444 43.1533 20.8092C41.1145 20.7411 39.6031 19.8027 38.808 17.9202C38 16.0165 38.3911 14.2678 39.7921 12.7528C40.5332 11.9519 40.5437 11.1474 39.7921 10.3805C39.0718 9.65787 38.35 8.93797 37.6265 8.2208C36.8761 7.47858 36.0575 7.47271 35.2942 8.18322C33.7874 9.5925 32.0493 10.0118 30.1351 9.21786C28.2208 8.42397 27.2578 6.88316 27.1991 4.79978C27.172 3.82033 26.5731 3.21669 25.596 3.20964C24.5297 3.20416 23.4633 3.20416 22.3969 3.20964C21.421 3.21669 20.8268 3.82268 20.7986 4.80448C20.741 6.86554 19.8062 8.39579 17.9037 9.20025C15.9789 10.0153 14.222 9.60307 12.7011 8.17852C11.9577 7.4821 11.1262 7.48093 10.404 8.19027C9.69935 8.88081 9.01233 9.57958 8.31944 10.276C7.43159 11.1662 7.42102 11.9014 8.28655 12.8256C9.11692 13.6882 9.58259 14.8379 9.58661 16.0352C9.62067 18.6471 7.53141 20.7587 4.88902 20.808C3.77569 20.8291 3.20728 21.4046 3.20493 22.5179C3.20493 23.5514 3.19906 24.5837 3.20493 25.6172C3.21198 26.5661 3.81914 27.1873 4.75631 27.2073C6.83969 27.2531 8.3852 28.1832 9.19906 30.1069C10.0129 32.0305 9.59483 33.7886 8.17381 35.3095C7.47739 36.0564 7.46917 36.8855 8.18673 37.6078C8.90429 38.33 9.64181 39.0734 10.377 39.7992C11.1122 40.525 11.9495 40.5438 12.7129 39.8274C14.2325 38.4005 15.9871 37.9906 17.9131 38.8056C19.818 39.6125 20.7446 41.145 20.7986 43.2061C20.8256 44.2091 21.4245 44.8033 22.4427 44.808C23.4257 44.808 24.4087 44.808 25.3917 44.808C26.6377 44.808 27.1697 44.2819 27.2014 43.0206C27.266 40.485 29.3846 38.4204 32.0963 38.4251Z" fill="#949494"/>
<path d="M12.801 24.02C12.7951 17.872 17.8016 12.8292 23.9272 12.8139C25.4053 12.8058 26.8703 13.0901 28.2381 13.6503C29.606 14.2105 30.8495 15.0356 31.8973 16.0781C32.9451 17.1207 33.7764 18.3601 34.3434 19.7251C34.9105 21.09 35.2021 22.5537 35.2014 24.0317C35.2097 30.1386 30.1727 35.2108 24.0975 35.2097C17.8215 35.2097 12.8092 30.242 12.801 24.02ZM31.9965 24.02C31.9871 19.6078 28.4075 16.0118 24.0294 16.0165C22.9731 16.0135 21.9266 16.2197 20.9503 16.623C19.974 17.0264 19.0872 17.619 18.341 18.3668C17.5948 19.1145 17.004 20.0025 16.6026 20.9796C16.2013 21.9567 15.9973 23.0036 16.0024 24.0599C16.0024 28.4569 19.6324 32.0329 24.067 32.0153C28.4205 31.9942 32.0082 28.3794 31.9977 24.0176L31.9965 24.02Z" fill="#949494"/>
</g>
<defs>
<clipPath id="clip0_55_43">
<rect width="48" height="48.0141" fill="white"/>
</clipPath>
</defs>
</svg>
