<svg width="48" height="49" viewBox="0 0 48 49" fill="none" xmlns="http://www.w3.org/2000/svg">
<g clip-path="url(#clip0_55_31)">
<path d="M0 23.6336C0.0332403 23.6051 0.0624749 23.5724 0.0869055 23.5361C0.447446 22.815 1.04052 22.4791 1.70053 22.6365C2.39695 22.7986 2.75749 23.3494 2.82443 24.1632C2.94187 25.5607 2.96418 26.9912 3.29419 28.3417C5.47035 37.1779 10.9865 42.889 19.8861 44.7222C28.3664 46.4686 35.3823 43.4656 40.8538 36.8044C40.9226 36.7049 40.9853 36.6014 41.0417 36.4944L38.99 36.6189C38.7246 36.6341 38.4592 36.6647 38.195 36.6612C37.8302 36.6667 37.4773 36.5313 37.2098 36.2833C36.9423 36.0352 36.7807 35.6935 36.7587 35.3294C36.7492 35.1452 36.7762 34.9609 36.8383 34.7872C36.9003 34.6135 36.996 34.4538 37.12 34.3172C37.244 34.1807 37.3938 34.07 37.5608 33.9916C37.7277 33.9131 37.9085 33.8685 38.0928 33.8602C39.589 33.7557 41.0863 33.67 42.5837 33.576C42.9113 33.5549 43.2378 33.5314 43.5655 33.5114C44.4756 33.4586 45.185 34.0916 45.1897 34.997C45.2006 36.9348 45.2006 38.8725 45.1897 40.8103C45.1897 41.6782 44.5731 42.3006 43.7698 42.29C42.9665 42.2795 42.4005 41.6676 42.3817 40.8221C42.3918 40.3463 42.3548 39.8707 42.2713 39.4022C42.1926 39.5091 42.1233 39.623 42.0364 39.7216C38.2149 44.0184 33.4743 46.6749 27.8144 47.6911C27.0182 47.832 26.2102 47.9072 25.4081 48.0141H22.5895C22.2666 47.9753 21.9448 47.9342 21.6207 47.8966C17.6676 47.4727 14.0094 46.2031 10.727 43.9565C5.10511 40.1068 1.60893 34.8303 0.369935 28.0974C0.206694 27.2108 0.11744 26.3065 0 25.4151V23.6336Z" fill="#949494"/>
<path d="M6.95241 11.5255C7.71694 11.4774 8.41219 11.4281 9.10743 11.3928C9.44918 11.3764 9.8015 11.3365 10.1327 11.3928C10.4657 11.4602 10.7626 11.6469 10.9677 11.9178C11.1728 12.1886 11.2719 12.5251 11.2464 12.8639C11.2208 13.2027 11.0724 13.5205 10.8291 13.7576C10.5857 13.9947 10.2642 14.1348 9.92481 14.1515C8.33468 14.2642 6.74415 14.3621 5.15323 14.4451C4.7234 14.4686 4.27009 14.5226 3.8614 14.4181C3.15676 14.236 2.81736 13.7311 2.81383 12.9924C2.80522 11.0546 2.80522 9.11685 2.81383 7.17909C2.81853 6.34175 3.43039 5.72988 4.21606 5.72753C5.00174 5.72519 5.60185 6.33705 5.62534 7.17439C5.63709 7.62654 5.62534 8.07986 5.62534 8.65883C5.79211 8.4815 5.89193 8.3805 5.98588 8.27598C9.76744 4.03875 14.4298 1.33176 20.0329 0.369931C26.3957 -0.72226 32.2795 0.610682 37.5807 4.2748C42.815 7.8943 46.1397 12.8632 47.475 19.0934C47.8097 20.6541 47.8731 22.2783 47.9988 23.8779C48.0211 24.0696 48.0027 24.264 47.9449 24.4482C47.8871 24.6324 47.7911 24.8024 47.6633 24.947C47.5355 25.0917 47.3786 25.2079 47.2029 25.2879C47.0272 25.368 46.8366 25.4101 46.6435 25.4116C45.8273 25.4339 45.2131 24.8068 45.2014 23.9049C45.1415 19.3635 43.8179 15.2261 41.1133 11.5807C37.495 6.70346 32.6753 3.71227 26.6189 3.01937C18.6905 2.11391 12.2501 4.99941 7.22017 11.1321C7.13444 11.2366 7.0675 11.3553 6.95241 11.5255Z" fill="#949494"/>
<path d="M19.1333 13.7311C19.1333 12.9325 19.1333 12.1844 19.1333 11.4363C19.1333 10.4968 19.6829 9.94832 20.613 9.94714C22.8655 9.94714 25.118 9.94714 27.3705 9.94714C28.3265 9.94714 28.8632 10.4968 28.8667 11.4656C28.8667 12.1996 28.8667 12.9336 28.8667 13.7311C29.219 13.7311 29.5384 13.7311 29.8614 13.7311C31.1532 13.7475 32.108 14.6847 32.1092 15.9859C32.1147 22.5931 32.1147 29.1998 32.1092 35.8062C32.1092 37.1074 31.1591 38.0599 29.8638 38.0622C25.9601 38.0708 22.056 38.0708 18.1515 38.0622C16.8503 38.0622 15.8931 37.1145 15.8919 35.8203C15.8849 29.1991 15.8849 22.5774 15.8919 15.9554C15.8919 14.6835 16.8514 13.7487 18.1233 13.7299C18.438 13.7275 18.7516 13.7311 19.1333 13.7311ZM18.6142 35.3306H29.3858V16.4416C28.8138 16.4416 28.2619 16.4416 27.7111 16.4416C26.6917 16.4416 26.1656 15.9084 26.1632 14.8808C26.1632 14.1503 26.1632 13.4198 26.1632 12.6894H21.8367C21.8367 13.4562 21.8367 14.1914 21.8367 14.9207C21.8367 15.8872 21.293 16.431 20.3347 16.4369C19.7675 16.4369 19.2014 16.4369 18.6142 16.4369V35.3306Z" fill="#949494"/>
<path d="M23.0077 25.7628C22.6647 25.7628 22.3664 25.7734 22.0681 25.7628C21.8159 25.7571 21.5703 25.6809 21.3592 25.5426C21.1481 25.4044 20.98 25.2098 20.874 24.9808C20.7679 24.7519 20.7282 24.4978 20.7593 24.2474C20.7904 23.997 20.8911 23.7604 21.0499 23.5643C21.9894 22.3735 22.9219 21.1815 23.8744 20.0035C23.9829 19.8636 24.1181 19.7466 24.2723 19.6595C24.4264 19.5723 24.5963 19.5166 24.7722 19.4958C24.948 19.4749 25.1263 19.4892 25.2966 19.5379C25.4668 19.5865 25.6257 19.6686 25.764 19.7792C26.0426 20.0018 26.2223 20.3252 26.264 20.6794C26.3058 21.0335 26.2063 21.3899 25.9871 21.6712C25.6618 22.1163 25.3106 22.5414 24.8973 23.0687H25.8368C26.4122 23.0687 26.8609 23.3036 27.1133 23.8285C27.3752 24.3688 27.2719 24.8749 26.8996 25.3377C25.9213 26.5532 24.9536 27.7769 23.9636 28.9865C23.4422 29.6289 22.6095 29.7252 22.0106 29.239C21.4116 28.7528 21.3635 27.9307 21.8791 27.2707C22.2314 26.8221 22.5837 26.3782 22.936 25.9307C22.9651 25.8771 22.9891 25.8209 23.0077 25.7628V25.7628Z" fill="#949494"/>
</g>
<defs>
<clipPath id="clip0_55_31">
<rect width="48" height="48.0141" fill="white"/>
</clipPath>
</defs>
</svg>
