<svg width="48" height="49" viewBox="0 0 48 49" fill="none" xmlns="http://www.w3.org/2000/svg">
<g clip-path="url(#clip0_55_28)">
<path d="M25.4386 21.3341L27.0205 21.8661C28.1206 22.2333 29.2206 22.6005 30.3206 22.9677C31.293 23.2942 31.5056 24.1421 30.7904 24.855C27.4237 28.2216 24.0571 31.5882 20.6905 34.9548C20.1303 35.5138 19.4809 35.5338 19.0405 35.0088C18.6976 34.599 18.7622 34.1668 18.9853 33.7229C19.823 32.0513 20.6584 30.3774 21.4915 28.7011L22.4956 26.6941C22.357 26.6436 22.2443 26.5978 22.1292 26.559C20.6267 26.0564 19.1239 25.5541 17.6207 25.0523C16.6259 24.7187 16.4157 23.8779 17.1509 23.1486C20.5089 19.7874 23.8681 16.4283 27.2284 13.0711C27.8062 12.4933 28.4603 12.4721 28.9019 13.017C29.2261 13.4175 29.172 13.8391 28.9536 14.2748C28.3547 15.4649 27.7584 16.6561 27.165 17.8485L25.5972 20.9936C25.5455 21.0946 25.5009 21.1967 25.4386 21.3341Z" fill="#949494"/>
<path d="M36.3981 43.5702C35.057 43.5702 33.9378 43.0616 32.9924 42.1303C32.559 41.7029 32.0446 41.5267 31.441 41.7146C31.1748 41.7899 30.9349 41.938 30.7482 42.1421C30.5615 42.3462 30.4354 42.5984 30.384 42.8702C30.3533 43.0509 30.3415 43.2343 30.3488 43.4175C30.3307 44.4412 29.978 45.4308 29.3445 46.2351C28.7111 47.0395 27.8318 47.6144 26.8409 47.872C26.6826 47.9238 26.5185 47.9553 26.3523 47.9659C24.7258 47.9659 23.0816 48.1057 21.4762 47.9178C19.1861 47.6488 17.6089 45.6864 17.576 43.3729C17.5655 42.6389 17.3412 42.0622 16.6365 41.7616C15.9319 41.4609 15.3658 41.6982 14.8303 42.2032C12.8561 44.0681 10.0963 44.0329 8.15502 42.1327C7.38148 41.3764 6.61695 40.6103 5.86142 39.8344C3.97299 37.8908 3.95302 35.1157 5.81914 33.1474C6.30887 32.6306 6.55079 32.0693 6.26307 31.3858C5.97534 30.7023 5.41045 30.4345 4.67058 30.4228C2.02936 30.3723 0.0305343 28.3335 0.00704639 25.6829C-0.0023488 24.5821 -0.0023488 23.4817 0.00704639 22.3817C0.0258368 19.7005 2.02231 17.6758 4.69759 17.616C5.60775 17.5972 6.16794 17.1885 6.34762 16.3981C6.48855 15.7804 6.22431 15.3106 5.8121 14.8714C4.26072 13.2272 4.00822 10.9278 5.1744 9.07808C5.3815 8.75646 5.6216 8.45733 5.89078 8.18554C6.633 7.421 7.38814 6.66939 8.14915 5.92247C10.1304 3.98119 12.8925 3.96123 14.8949 5.8755C15.3999 6.35935 15.9695 6.55312 16.6248 6.27714C17.2801 6.00116 17.5643 5.47738 17.5796 4.77391C17.6477 1.95536 19.6442 0.00937727 22.4674 0.0140749C23.7792 0.0140749 25.1075 -0.062261 26.4005 0.105678C28.707 0.403975 30.2971 2.33703 30.3535 4.67174C30.3496 4.85438 30.3641 5.03695 30.3969 5.21666C30.6835 6.43099 32.074 6.79622 33.0206 5.89781C34.505 4.48853 36.2173 4.09628 38.121 4.82441C38.7082 5.04872 39.2531 5.45858 39.7275 5.88137C40.5496 6.61302 41.3012 7.41631 42.0669 8.20315C43.9518 10.1397 43.9718 12.9254 42.108 14.8972C41.6171 15.4151 41.3764 15.9753 41.6641 16.6588C41.9518 17.3423 42.5191 17.6101 43.2578 17.6218C45.9002 17.6641 47.8943 19.697 47.9213 22.3547C47.9319 23.4374 47.9284 24.5214 47.9213 25.6054C47.906 28.3535 45.9248 30.3582 43.1814 30.4204C42.323 30.4392 41.7581 30.862 41.5807 31.6383C41.4398 32.2548 41.6982 32.7258 42.1174 33.165C43.6641 34.8033 43.9225 37.111 42.7481 38.9606C42.5523 39.2696 42.3248 39.5574 42.0693 39.8191C41.2918 40.6201 40.5015 41.4069 39.7052 42.1891C39.2742 42.6285 38.7594 42.9771 38.1914 43.2143C37.6234 43.4515 37.0137 43.5725 36.3981 43.5702V43.5702ZM32.047 38.4392C33.1767 38.4721 34.2983 38.9289 35.2378 39.8485C35.973 40.566 36.8045 40.5637 37.5291 39.8485C38.2783 39.1133 39.0198 38.3715 39.7534 37.623C40.458 36.8984 40.458 36.0704 39.7604 35.3212C38.3429 33.7945 37.9272 32.0411 38.7446 30.1151C39.5502 28.2137 41.0757 27.2789 43.1345 27.2237C44.1104 27.1979 44.7176 26.5966 44.7246 25.6207C44.7316 24.5707 44.7246 23.5208 44.7246 22.4709C44.7246 21.421 44.1292 20.8526 43.0804 20.8174C41.044 20.7492 39.5361 19.8109 38.7352 17.9283C37.9284 16.0235 38.3194 14.2748 39.7181 12.761C40.458 11.9589 40.4686 11.1532 39.7181 10.3864C39.0049 9.66293 38.2873 8.9442 37.5655 8.23016C36.8162 7.48794 35.9988 7.48207 35.2366 8.19376C33.7322 9.59599 31.9965 10.0223 30.0857 9.22723C28.175 8.43216 27.2132 6.89252 27.1556 4.80797C27.1286 3.82852 26.5308 3.2237 25.5549 3.21783C24.4901 3.21079 23.4257 3.21079 22.3617 3.21783C21.387 3.22488 20.7927 3.83087 20.7645 4.81267C20.707 6.87491 19.7733 8.40515 17.8743 9.21079C15.953 10.0258 14.1996 9.61361 12.68 8.18789C11.9378 7.49147 11.1075 7.48325 10.3876 8.19963C9.68291 8.89018 8.99824 9.58894 8.30534 10.2854C7.41867 11.1767 7.4081 11.9119 8.27246 12.8362C9.10153 13.6999 9.56624 14.8497 9.57017 16.047C9.60423 18.66 7.5185 20.7716 4.87845 20.8209C3.76747 20.842 3.20023 21.4187 3.19789 22.532C3.19789 23.5655 3.19201 24.5989 3.19789 25.6324C3.20493 26.5813 3.81092 27.2026 4.74692 27.2225C6.82678 27.2683 8.36994 28.1985 9.18262 30.1221C9.9953 32.0458 9.57839 33.805 8.15854 35.3271C7.4633 36.074 7.46213 36.9043 8.17146 37.6265C8.8808 38.3488 9.63006 39.0898 10.3629 39.8121C11.0957 40.5343 11.9331 40.5555 12.6941 39.8403C14.2114 38.4122 15.9636 38.0012 17.8861 38.8174C19.7886 39.6242 20.7129 41.1579 20.7669 43.219C20.7939 44.2219 21.3928 44.8162 22.411 44.8209C23.3928 44.8209 24.3735 44.8209 25.3553 44.8209C26.6001 44.8209 27.1309 44.2948 27.1627 43.0335C27.2237 40.4968 29.3388 38.4322 32.047 38.4369V38.4392Z" fill="#949494"/>
</g>
<defs>
<clipPath id="clip0_55_28">
<rect width="48" height="48.0141" fill="white"/>
</clipPath>
</defs>
</svg>
