<svg width="48" height="49" viewBox="0 0 48 49" fill="none" xmlns="http://www.w3.org/2000/svg">
<path d="M24.1165 0.601318C25.506 0.601318 26.8008 1.24245 27.8616 2.13996C28.4475 2.63561 29.0694 3.08752 29.7123 3.5103C32.8972 5.59369 36.4063 6.59897 40.2055 6.60837H41.5044C41.8456 6.60837 42.1221 6.88493 42.1221 7.2261V7.2261C42.1221 7.84383 42.0752 20.2537 42.1409 26.7669C42.1773 30.4263 40.9982 33.6054 38.7962 36.4569C36.9243 38.8808 34.653 40.8867 32.1703 42.6589C29.7593 44.3754 27.1893 45.8568 24.4956 47.0828C24.378 47.1444 24.2472 47.1765 24.1145 47.1765C23.9818 47.1765 23.851 47.1444 23.7334 47.0828C19.2237 44.9947 15.0699 42.3735 11.5373 38.8479C9.28949 36.6037 7.41868 34.0846 6.61187 30.9501C6.30433 29.7606 6.14264 28.5381 6.13036 27.3095C6.08456 20.5872 6.10687 13.8579 6.10687 7.13567V7.13567C6.10687 6.84445 6.34296 6.60837 6.63418 6.60837H8.02467C11.8238 6.59897 15.3329 5.59369 18.5179 3.5103C19.1619 3.08937 19.7835 2.63764 20.3678 2.14299C21.4295 1.24409 22.7253 0.601318 24.1165 0.601318V0.601318ZM9.10511 19.232C9.10511 21.9331 9.07106 24.6342 9.12273 27.3353C9.13914 28.3064 9.27001 29.2722 9.51263 30.2126C10.1421 32.6272 11.5866 34.5814 13.2813 36.35C16.3218 39.5209 19.9753 41.8509 23.8661 43.8168C23.9508 43.8505 24.0416 43.8664 24.1327 43.8636C24.2238 43.8607 24.3133 43.8392 24.3958 43.8004C25.4292 43.2578 26.4686 42.7199 27.4704 42.1233C30.6823 40.2091 33.6594 38 36.0564 35.0899C38.0388 32.6835 39.1955 29.9965 39.145 26.7986C39.0734 22.3218 39.1274 17.8415 39.1274 13.3635C39.1274 12.2396 39.1133 11.1157 39.1345 9.99298C39.1415 9.65006 39.017 9.54319 38.6964 9.53262C38.1959 9.52111 37.6964 9.48191 37.2002 9.41518C32.9243 8.79509 29.0957 7.16386 25.8368 4.29715C25.2613 3.79216 24.707 3.53379 23.9366 3.58429C23.441 3.61717 23.0628 3.72287 22.6823 4.05992C18.9423 7.37251 14.5766 9.19478 9.58544 9.52674C9.17793 9.55376 9.09454 9.69821 9.09689 10.0775C9.11099 13.1286 9.10511 16.1809 9.10511 19.232Z" fill="#949494"/>
<path d="M24.135 8.66119C25.1086 9.95303 26.0716 11.1815 26.983 12.4463C29.3071 15.6735 31.5197 18.9736 33.192 22.599C33.8661 24.0611 34.4697 25.5561 34.5813 27.1873C34.8514 31.1145 32.4674 35.1991 28.9172 36.9407C24.0728 39.3153 18.6083 37.9977 15.5091 33.5819C13.4057 30.5872 13.064 27.3271 14.4733 23.9049C15.4234 21.596 16.6189 19.421 17.9436 17.3142C19.7884 14.4051 21.7878 11.597 23.9331 8.90195C23.9789 8.84205 24.0294 8.78685 24.135 8.66119ZM24.1574 13.623C24.0787 13.6747 24.0481 13.6853 24.0317 13.7076C21.5185 17.192 19.1215 20.7469 17.3799 24.6988C16.7422 26.1433 16.411 27.6254 16.7927 29.2108C17.7134 33.0347 21.0558 35.4351 24.9677 35.0393C29.7487 34.5485 32.8538 29.4668 31.0863 25.2637C29.3188 21.0605 26.7833 17.34 24.1574 13.623Z" fill="#949494"/>
<path d="M27.0851 30.5731H24.1385V27.6289H27.0851V30.5731Z" fill="#949494"/>
</svg>
