<svg width="48" height="49" viewBox="0 0 48 49" fill="none" xmlns="http://www.w3.org/2000/svg">
<g clip-path="url(#clip0_55_36)">
<path d="M11.9624 21.4316C12.183 21.045 12.2468 20.5884 12.1406 20.1562C12.0344 19.7239 11.7663 19.3489 11.3916 19.1086C11.3036 19.0511 11.1885 18.9912 11.1568 18.9031C11.0487 18.6001 10.9712 18.2865 10.8808 17.9753L15.2942 16.7034C16.2337 20.0751 17.1579 23.4222 18.0939 26.8033L11.6453 28.6553C11.9307 29.6441 12.2125 30.6013 12.4768 31.5643C12.5143 31.715 12.5028 31.8738 12.4439 32.0176C12.2957 32.3174 12.2379 32.6537 12.2773 32.9858C12.3168 33.3179 12.452 33.6313 12.6663 33.888C12.8807 34.1446 13.165 34.3334 13.4847 34.4315C13.8044 34.5295 14.1458 34.5325 14.4671 34.4401C14.7885 34.3477 15.0761 34.1639 15.295 33.911C15.5138 33.6582 15.6544 33.3472 15.6997 33.0159C15.7451 32.6846 15.6931 32.3472 15.5502 32.0449C15.4073 31.7425 15.1796 31.4883 14.8949 31.313C14.8011 31.2646 14.7236 31.1899 14.6717 31.098C14.5672 30.8044 14.4921 30.5003 14.4028 30.1902L18.7481 28.9395C19.2343 32.3452 19.7146 35.7134 20.1996 39.1063L21.899 35.2625C21.6383 33.4304 21.3764 31.5925 21.1039 29.6805L23.6054 31.4116L24.4392 29.5267L24.3499 29.4703L21.1791 27.2989C21.0522 27.2131 20.9348 27.1509 21.0041 26.9465C21.4985 25.4421 21.98 23.933 22.4674 22.4251C22.4872 22.3844 22.51 22.3451 22.5355 22.3077C23.7909 23.3646 25.0241 24.3934 26.2525 25.4316L27.9765 21.5314C27.1955 18.9207 26.4192 16.3241 25.6406 13.7228L30.0517 12.4486C30.0904 12.5848 30.1198 12.6999 30.1562 12.8115C30.2736 13.1732 30.3253 13.4962 30.1562 13.8966C29.8238 14.6835 30.2525 15.6077 31.0229 15.9777C31.3989 16.1584 31.8277 16.1969 32.23 16.0859C32.6322 15.9749 32.9806 15.722 33.2108 15.374C33.6805 14.6694 33.5819 13.6441 32.8855 13.1427C32.5026 12.8679 32.3793 12.5308 32.2701 12.1362C32.2125 11.9272 32.1526 11.7181 32.0904 11.5091L31.5608 9.67231L31.1579 9.78975C29.0197 10.4059 26.8788 11.024 24.7352 11.6441C24.646 11.6771 24.5497 11.6857 24.4562 11.669C24.3627 11.6522 24.2753 11.6108 24.2031 11.549C22.5191 10.2799 20.8322 9.01661 19.1427 7.75922C18.8056 7.50672 18.4686 7.25658 18.1045 6.98529C18.0434 7.12857 17.9941 7.23309 17.953 7.33761C17.0847 9.58854 16.2188 11.8406 15.3552 14.0939C15.3278 14.1849 15.2765 14.2668 15.2067 14.3313C15.1369 14.3957 15.0511 14.4403 14.9583 14.4603C12.8009 15.0781 10.6482 15.7017 8.49675 16.3241L8.14443 16.4251C8.14416 16.4644 8.14652 16.5036 8.15148 16.5425C8.41454 17.4621 8.67526 18.3828 8.94654 19.3C8.97871 19.3899 8.99228 19.4854 8.98643 19.5807C8.98057 19.676 8.95542 19.7691 8.91249 19.8543C8.72575 20.2522 8.69941 20.7068 8.83892 21.1236C8.97844 21.5404 9.27311 21.8875 9.66175 22.0927C10.0564 22.3007 10.5163 22.348 10.945 22.2248C11.3738 22.1016 11.7383 21.8173 11.9624 21.4316V21.4316ZM24.2302 16.9606H24.3112L25.879 22.3981C25.7815 22.3253 25.704 22.2736 25.6336 22.2149C24.8925 21.5948 24.1562 20.9677 23.4093 20.3558C23.2448 20.2208 23.192 20.1104 23.266 19.8943C23.5713 19.0006 23.8532 18.0986 24.1421 17.1932C24.1679 17.1156 24.2008 17.0381 24.2302 16.9606V16.9606ZM19.1802 10.761L21.6923 12.4944L17.98 13.5643L19.1802 10.761ZM22.8279 14.5296L21.4762 18.7246L18.0986 15.8931L22.8279 14.5296ZM18.1374 18.7434L18.2137 18.6858L20.7974 20.8479C20.4451 21.9471 20.0928 23.0487 19.7146 24.209L18.1374 18.7434Z" fill="#949494"/>
<path d="M39.5772 29.9836C39.4796 29.8626 39.4229 29.7137 39.4152 29.5584C39.4011 28.6671 39.4081 27.7745 39.4081 26.8832V26.5073H32.6917C32.6831 25.8027 32.6757 25.0981 32.6694 24.3934L29.9801 27.6066C29.9887 27.6519 29.9812 27.6989 29.9589 27.7393C29.057 28.8491 28.1456 29.9519 27.2179 31.0781L27.1404 30.9971L25.8109 32.5849L25.8932 32.6835L23.03 36.1574L22.9654 36.1386L22.9912 35.953L20.2901 39.1756V39.1932H23.2261V39.1709L27.205 34.2924L31.1897 39.1662V39.1768H34.1139C33.6289 35.6958 33.1462 32.2384 32.6624 28.7728H37.1826C37.1826 29.0617 37.2003 29.3236 37.1756 29.5819C37.1625 29.7263 37.1079 29.8638 37.0182 29.9777C36.7929 30.2241 36.644 30.5306 36.5896 30.86C36.5352 31.1894 36.5775 31.5276 36.7116 31.8334C36.8457 32.1391 37.0657 32.3994 37.3448 32.5826C37.624 32.7657 37.9503 32.8639 38.2842 32.8651C38.6181 32.8663 38.9451 32.7706 39.2256 32.5895C39.5061 32.4084 39.728 32.1497 39.8643 31.845C40.0006 31.5402 40.0455 31.2024 39.9935 30.8726C39.9415 30.5428 39.7949 30.2351 39.5714 29.9871L39.5772 29.9836ZM31.3929 36.1715L28.5179 32.687L30.6013 30.1374C30.8902 32.1891 31.1674 34.1633 31.4457 36.1386L31.3929 36.1715Z" fill="#949494"/>
<path d="M23.9354 46.5062C36.3451 46.5062 46.4052 36.4461 46.4052 24.0364C46.4052 11.6267 36.3451 1.56665 23.9354 1.56665C11.5257 1.56665 1.46564 11.6267 1.46564 24.0364C1.46564 36.4461 11.5257 46.5062 23.9354 46.5062Z" stroke="#949494" stroke-width="3" stroke-miterlimit="10"/>
</g>
<defs>
<clipPath id="clip0_55_36">
<rect width="48" height="48.0141" fill="white"/>
</clipPath>
</defs>
</svg>
