<svg width="48" height="48" viewBox="0 0 48 48" fill="none" xmlns="http://www.w3.org/2000/svg">
<g clip-path="url(#clip0_4_63)">
<path d="M0 23.6267C0.0332403 23.5983 0.062475 23.5655 0.0869055 23.5292C0.447446 22.8083 1.04052 22.4726 1.70053 22.6299C2.39695 22.7919 2.75749 23.3425 2.82443 24.1562C2.94187 25.5533 2.96418 26.9833 3.29419 28.3334C5.47035 37.167 10.9865 42.8764 19.8861 44.7091C28.3664 46.455 35.3823 43.4529 40.8538 36.7937C40.9226 36.6942 40.9853 36.5907 41.0417 36.4837L38.99 36.6082C38.7246 36.6234 38.4592 36.654 38.195 36.6504C37.8302 36.6559 37.4773 36.5206 37.2098 36.2726C36.9423 36.0247 36.7807 35.6831 36.7587 35.3191C36.7492 35.1349 36.7762 34.9507 36.8383 34.777C36.9003 34.6034 36.996 34.4437 37.12 34.3072C37.244 34.1707 37.3938 34.06 37.5608 33.9816C37.7277 33.9032 37.9085 33.8586 38.0928 33.8503C39.589 33.7458 41.0863 33.6601 42.5837 33.5662C42.9113 33.5451 43.2378 33.5216 43.5655 33.5016C44.4756 33.4488 45.185 34.0816 45.1897 34.9868C45.2006 36.924 45.2006 38.8612 45.1897 40.7984C45.1897 41.666 44.5731 42.2882 43.7698 42.2777C42.9665 42.2671 42.4005 41.6554 42.3817 40.8101C42.3918 40.3345 42.3548 39.859 42.2713 39.3907C42.1926 39.4975 42.1233 39.6114 42.0364 39.71C38.2149 44.0055 33.4743 46.6612 27.8144 47.6771C27.0182 47.818 26.2102 47.8932 25.4081 48H22.5896C22.2666 47.9613 21.9448 47.9202 21.6207 47.8826C17.6676 47.4588 14.0094 46.1896 10.727 43.9437C5.10511 40.0951 1.60893 34.8201 0.369935 28.0892C0.206694 27.2028 0.11744 26.2988 0 25.4077V23.6267Z" fill="white"/>
<path d="M6.95241 11.5222C7.71694 11.474 8.41219 11.4247 9.10743 11.3895C9.44918 11.3731 9.8015 11.3331 10.1327 11.3895C10.4657 11.4568 10.7626 11.6434 10.9677 11.9143C11.1728 12.1851 11.2719 12.5214 11.2464 12.8601C11.2208 13.1988 11.0724 13.5166 10.8291 13.7536C10.5857 13.9906 10.2642 14.1306 9.92481 14.1473C8.33468 14.26 6.74415 14.3579 5.15323 14.4409C4.7234 14.4643 4.27009 14.5183 3.8614 14.4138C3.15676 14.2319 2.81736 13.727 2.81383 12.9885C2.80522 11.0514 2.80522 9.11417 2.81383 7.17698C2.81853 6.33988 3.43039 5.7282 4.21606 5.72585C5.00174 5.72351 5.60185 6.33519 5.62534 7.17229C5.63709 7.6243 5.62534 8.07748 5.62534 8.65629C5.79211 8.47901 5.89193 8.37804 5.98588 8.27355C9.76744 4.03756 14.4298 1.33137 20.0329 0.369822C26.3957 -0.722048 32.2795 0.610503 37.5807 4.27355C42.815 7.89198 46.1397 12.8594 47.475 19.0878C47.8097 20.6481 47.8731 22.2718 47.9988 23.8708C48.0211 24.0626 48.0027 24.2568 47.9449 24.441C47.8871 24.6252 47.7911 24.7951 47.6633 24.9397C47.5355 25.0844 47.3786 25.2005 47.2029 25.2805C47.0272 25.3605 46.8366 25.4026 46.6435 25.4042C45.8273 25.4265 45.2131 24.7995 45.2014 23.8979C45.1415 19.3578 43.8179 15.2216 41.1133 11.5773C37.495 6.70149 32.6753 3.71118 26.6189 3.01849C18.6905 2.11329 12.2501 4.99794 7.22017 11.1288C7.13444 11.2333 7.0675 11.3519 6.95241 11.5222Z" fill="white"/>
<path d="M34.5402 26.4914C34.6788 31.8673 30.4486 36.6551 25.1086 37.1623C19.4715 37.6977 14.5883 34.0781 13.5455 28.5272C13.0652 25.9748 13.4856 23.4787 14.4228 21.0801C15.9225 17.2422 18.5696 14.3305 21.8814 11.973C22.4686 11.5586 23.0898 11.204 23.7111 10.8471C23.7832 10.8097 23.8627 10.7886 23.9439 10.7853C24.025 10.7821 24.106 10.7968 24.1808 10.8283C28.9184 13.585 32.4873 17.329 34.0141 22.7226C34.357 23.9354 34.4486 25.2199 34.6576 26.4726L34.5402 26.4914ZM16.0892 25.8292C15.475 30.2143 19.0558 34.0863 22.6388 34.4197C22.6388 33.3795 22.6271 32.3417 22.6459 31.3038C22.6547 31.1825 22.6309 31.0611 22.577 30.9521C22.5231 30.8432 22.4411 30.7505 22.3394 30.6839C20.5762 29.3259 18.8181 27.9605 17.0652 26.5876L16.0892 25.8292ZM31.8262 25.8703C31.7851 25.8811 31.7456 25.8973 31.7087 25.9184C29.6261 27.5355 27.5463 29.1533 25.4691 30.772C25.3846 30.8389 25.2801 30.9492 25.2789 31.0408C25.266 32.1773 25.2707 33.3138 25.2707 34.4561C29.4081 33.8597 32.391 29.7717 31.8262 25.8691V25.8703ZM16.4979 22.8037L22.6365 27.5797C22.6365 25.9936 22.6459 24.5154 22.6248 23.0385C22.6248 22.8882 22.4733 22.7015 22.3405 22.597C21.0663 21.5897 19.7815 20.6011 18.4979 19.5997C18.411 19.5327 18.3124 19.4823 18.135 19.3648L16.4979 22.8037ZM25.2742 27.5832C26.9841 26.253 28.613 24.9921 30.2325 23.7206C30.6048 23.4282 31.1568 23.1488 31.2437 22.7743C31.3306 22.3998 30.9935 21.8726 30.7868 21.4394C30.4592 20.7491 30.0822 20.0787 29.7134 19.3672C28.2395 20.5154 26.842 21.5979 25.4527 22.6921C25.3558 22.7722 25.2946 22.8875 25.2824 23.0126C25.2707 24.5025 25.2742 25.9912 25.2742 27.5832V27.5832ZM28.1315 17.2586L25.2965 14.6217V19.4635C26.2395 18.7285 27.1286 18.0346 28.1315 17.2586ZM22.6048 19.4529V14.6264L19.7862 17.2574L22.6048 19.4529Z" fill="white"/>
</g>
<defs>
<clipPath id="clip0_4_63">
<rect width="48" height="48" fill="white"/>
</clipPath>
</defs>
</svg>
