<svg width="244" height="35" viewBox="0 0 244 35" fill="none" xmlns="http://www.w3.org/2000/svg">
<g filter="url(#filter0_d_4_40)">
<path d="M54.0528 11.8502C53.9752 11.0679 53.6423 10.4601 53.0539 10.0269C52.4656 9.59375 51.6671 9.37715 50.6584 9.37715C49.9731 9.37715 49.3944 9.47414 48.9224 9.6681C48.4505 9.8556 48.0884 10.1175 47.8362 10.4537C47.5906 10.7899 47.4677 11.1713 47.4677 11.5981C47.4548 11.9537 47.5291 12.264 47.6908 12.5291C47.8589 12.7942 48.0884 13.0237 48.3793 13.2177C48.6703 13.4052 49.0065 13.57 49.388 13.7123C49.7694 13.8481 50.1768 13.9644 50.6099 14.0614L52.3944 14.4881C53.2608 14.6821 54.0561 14.9407 54.7802 15.264C55.5043 15.5873 56.1315 15.9849 56.6617 16.4569C57.1918 16.9289 57.6024 17.4849 57.8934 18.125C58.1908 18.7651 58.3427 19.4989 58.3492 20.3265C58.3427 21.542 58.0324 22.5959 57.4181 23.4881C56.8104 24.3739 55.9311 25.0625 54.7802 25.5539C53.6358 26.0388 52.2554 26.2813 50.639 26.2813C49.0356 26.2813 47.639 26.0356 46.4494 25.5442C45.2662 25.0528 44.3416 24.3254 43.6757 23.3621C43.0162 22.3922 42.6703 21.1929 42.638 19.764H46.7015C46.7468 20.43 46.9375 20.986 47.2737 21.4321C47.6164 21.8718 48.0722 22.2047 48.6412 22.431C49.2166 22.6509 49.8664 22.7608 50.5906 22.7608C51.3018 22.7608 51.9192 22.6573 52.4429 22.4504C52.9731 22.2435 53.3837 21.9558 53.6746 21.5873C53.9656 21.2187 54.111 20.7953 54.111 20.3168C54.111 19.8707 53.9785 19.4957 53.7134 19.1918C53.4548 18.8879 53.0733 18.6293 52.569 18.4159C52.0712 18.2026 51.4602 18.0086 50.736 17.8341L48.5733 17.2909C46.8987 16.8836 45.5765 16.2468 44.6067 15.3804C43.6369 14.514 43.1552 13.347 43.1617 11.8793C43.1552 10.6767 43.4752 9.62608 44.1218 8.72737C44.7748 7.82866 45.6703 7.12716 46.8082 6.62284C47.9462 6.11853 49.2393 5.86638 50.6875 5.86638C52.1617 5.86638 53.4483 6.11853 54.5474 6.62284C55.6531 7.12716 56.513 7.82866 57.1272 8.72737C57.7414 9.62608 58.0582 10.667 58.0776 11.8502H54.0528ZM67.8268 26.2909C66.3203 26.2909 65.0175 25.9709 63.9184 25.3308C62.8257 24.6843 61.982 23.7856 61.3872 22.6347C60.7923 21.4774 60.4949 20.1358 60.4949 18.6099C60.4949 17.0711 60.7923 15.7263 61.3872 14.5754C61.982 13.4181 62.8257 12.5194 63.9184 11.8793C65.0175 11.2328 66.3203 10.9095 67.8268 10.9095C69.3333 10.9095 70.6328 11.2328 71.7255 11.8793C72.8247 12.5194 73.6716 13.4181 74.2665 14.5754C74.8613 15.7263 75.1587 17.0711 75.1587 18.6099C75.1587 20.1358 74.8613 21.4774 74.2665 22.6347C73.6716 23.7856 72.8247 24.6843 71.7255 25.3308C70.6328 25.9709 69.3333 26.2909 67.8268 26.2909ZM67.8462 23.0905C68.5316 23.0905 69.1038 22.8966 69.5628 22.5086C70.0219 22.1142 70.3678 21.5776 70.6005 20.8987C70.8397 20.2198 70.9594 19.4472 70.9594 18.5808C70.9594 17.7144 70.8397 16.9418 70.6005 16.2629C70.3678 15.5841 70.0219 15.0474 69.5628 14.653C69.1038 14.2586 68.5316 14.0614 67.8462 14.0614C67.1544 14.0614 66.5725 14.2586 66.1005 14.653C65.635 15.0474 65.2826 15.5841 65.0434 16.2629C64.8106 16.9418 64.6943 17.7144 64.6943 18.5808C64.6943 19.4472 64.8106 20.2198 65.0434 20.8987C65.2826 21.5776 65.635 22.1142 66.1005 22.5086C66.5725 22.8966 67.1544 23.0905 67.8462 23.0905ZM81.9766 6.13793V26H77.8451V6.13793H81.9766ZM89.534 26.2813C88.5835 26.2813 87.7366 26.1164 86.993 25.7866C86.2495 25.4504 85.6611 24.9558 85.2279 24.3028C84.8012 23.6433 84.5879 22.8222 84.5879 21.8394C84.5879 21.0119 84.7398 20.3168 85.0437 19.7543C85.3476 19.1918 85.7614 18.7392 86.2851 18.3966C86.8088 18.0539 87.4036 17.7953 88.0695 17.6207C88.742 17.4461 89.4467 17.3233 90.1838 17.2522C91.0501 17.1616 91.7484 17.0776 92.2786 17C92.8088 16.9159 93.1935 16.7931 93.4327 16.6315C93.6719 16.4698 93.7915 16.2306 93.7915 15.9138V15.8556C93.7915 15.2414 93.5976 14.7662 93.2096 14.43C92.8282 14.0937 92.2851 13.9256 91.5803 13.9256C90.8368 13.9256 90.2452 14.0905 89.8055 14.4203C89.3659 14.7435 89.0749 15.1509 88.9327 15.6422L85.1116 15.3319C85.3055 14.4267 85.687 13.6444 86.256 12.9849C86.8249 12.319 87.5588 11.8082 88.4575 11.4526C89.3626 11.0905 90.4101 10.9095 91.5997 10.9095C92.4273 10.9095 93.2193 11.0065 93.9758 11.2004C94.7387 11.3944 95.4144 11.695 96.0027 12.1024C96.5976 12.5097 97.0663 13.0334 97.409 13.6735C97.7517 14.3071 97.923 15.0668 97.923 15.9526V26H94.0049V23.9343H93.8885C93.6493 24.3998 93.3292 24.8103 92.9284 25.1659C92.5275 25.5151 92.0458 25.7899 91.4833 25.9903C90.9208 26.1843 90.271 26.2813 89.534 26.2813ZM90.7172 23.43C91.3249 23.43 91.8616 23.3103 92.3271 23.0711C92.7926 22.8254 93.1579 22.4957 93.423 22.0819C93.6881 21.6681 93.8206 21.1994 93.8206 20.6756V19.0948C93.6913 19.1789 93.5135 19.2565 93.2872 19.3276C93.0674 19.3922 92.8185 19.4537 92.5404 19.5119C92.2624 19.5636 91.9844 19.6121 91.7064 19.6573C91.4284 19.6961 91.1762 19.7317 90.9499 19.764C90.465 19.8351 90.0415 19.9483 89.6795 20.1034C89.3174 20.2586 89.0361 20.4687 88.8357 20.7338C88.6353 20.9925 88.5351 21.3157 88.5351 21.7037C88.5351 22.2662 88.7387 22.6961 89.146 22.9935C89.5598 23.2845 90.0835 23.43 90.7172 23.43ZM101.128 26V11.1034H105.134V13.7026H105.289C105.56 12.778 106.016 12.0797 106.656 11.6078C107.296 11.1293 108.033 10.8901 108.867 10.8901C109.074 10.8901 109.297 10.903 109.537 10.9289C109.776 10.9547 109.986 10.9903 110.167 11.0356V14.7015C109.973 14.6433 109.705 14.5916 109.362 14.5463C109.019 14.5011 108.706 14.4784 108.421 14.4784C107.814 14.4784 107.271 14.611 106.792 14.8761C106.32 15.1347 105.945 15.4968 105.667 15.9623C105.396 16.4278 105.26 16.9644 105.26 17.5722V26H101.128ZM131.018 15.3513L127.236 15.5841C127.171 15.2608 127.032 14.9698 126.819 14.7112C126.606 14.4461 126.324 14.236 125.975 14.0808C125.633 13.9192 125.222 13.8384 124.744 13.8384C124.103 13.8384 123.564 13.9741 123.124 14.2457C122.684 14.5108 122.464 14.8664 122.464 15.3125C122.464 15.6681 122.607 15.9687 122.891 16.2144C123.176 16.4601 123.664 16.6573 124.356 16.806L127.052 17.3491C128.5 17.6466 129.58 18.125 130.291 18.7845C131.002 19.444 131.358 20.3103 131.358 21.3836C131.358 22.3599 131.07 23.2166 130.495 23.9537C129.926 24.6907 129.143 25.2662 128.148 25.68C127.158 26.0873 126.017 26.2909 124.724 26.2909C122.752 26.2909 121.181 25.8804 120.011 25.0593C118.847 24.2317 118.165 23.1067 117.964 21.6843L122.028 21.4709C122.151 22.0722 122.448 22.5312 122.92 22.8481C123.392 23.1584 123.997 23.3136 124.734 23.3136C125.458 23.3136 126.04 23.1746 126.48 22.8966C126.926 22.6121 127.152 22.2468 127.158 21.8006C127.152 21.4256 126.994 21.1185 126.683 20.8793C126.373 20.6336 125.894 20.4461 125.248 20.3168L122.668 19.8028C121.213 19.5119 120.13 19.0075 119.419 18.2899C118.714 17.5722 118.362 16.6573 118.362 15.5453C118.362 14.5884 118.621 13.764 119.138 13.0722C119.662 12.3804 120.396 11.847 121.339 11.472C122.29 11.097 123.402 10.9095 124.676 10.9095C126.557 10.9095 128.038 11.3071 129.117 12.1024C130.204 12.8976 130.837 13.9806 131.018 15.3513ZM140.69 26.2909C139.183 26.2909 137.881 25.9709 136.782 25.3308C135.689 24.6843 134.845 23.7856 134.25 22.6347C133.655 21.4774 133.358 20.1358 133.358 18.6099C133.358 17.0711 133.655 15.7263 134.25 14.5754C134.845 13.4181 135.689 12.5194 136.782 11.8793C137.881 11.2328 139.183 10.9095 140.69 10.9095C142.196 10.9095 143.496 11.2328 144.589 11.8793C145.688 12.5194 146.535 13.4181 147.13 14.5754C147.724 15.7263 148.022 17.0711 148.022 18.6099C148.022 20.1358 147.724 21.4774 147.13 22.6347C146.535 23.7856 145.688 24.6843 144.589 25.3308C143.496 25.9709 142.196 26.2909 140.69 26.2909ZM140.709 23.0905C141.395 23.0905 141.967 22.8966 142.426 22.5086C142.885 22.1142 143.231 21.5776 143.464 20.8987C143.703 20.2198 143.822 19.4472 143.822 18.5808C143.822 17.7144 143.703 16.9418 143.464 16.2629C143.231 15.5841 142.885 15.0474 142.426 14.653C141.967 14.2586 141.395 14.0614 140.709 14.0614C140.018 14.0614 139.436 14.2586 138.964 14.653C138.498 15.0474 138.146 15.5841 137.907 16.2629C137.674 16.9418 137.557 17.7144 137.557 18.5808C137.557 19.4472 137.674 20.2198 137.907 20.8987C138.146 21.5776 138.498 22.1142 138.964 22.5086C139.436 22.8966 140.018 23.0905 140.709 23.0905ZM154.84 6.13793V26H150.708V6.13793H154.84ZM167.702 19.6573V11.1034H171.834V26H167.867V23.2942H167.712C167.376 24.167 166.816 24.8685 166.034 25.3987C165.258 25.9289 164.311 26.194 163.192 26.194C162.197 26.194 161.321 25.9677 160.564 25.5151C159.808 25.0625 159.216 24.4192 158.789 23.5851C158.369 22.7511 158.156 21.7522 158.149 20.5884V11.1034H162.281V19.8513C162.287 20.7306 162.523 21.4256 162.989 21.9364C163.454 22.4472 164.078 22.7026 164.86 22.7026C165.358 22.7026 165.824 22.5894 166.257 22.3631C166.69 22.1304 167.039 21.7877 167.304 21.3351C167.576 20.8825 167.709 20.3233 167.702 19.6573ZM183.062 11.1034V14.2069H174.091V11.1034H183.062ZM176.127 7.53448H180.259V21.4224C180.259 21.8039 180.317 22.1013 180.433 22.3147C180.55 22.5216 180.712 22.667 180.918 22.7511C181.132 22.8351 181.377 22.8772 181.655 22.8772C181.849 22.8772 182.043 22.861 182.237 22.8287C182.431 22.7899 182.58 22.7608 182.683 22.7414L183.333 25.8157C183.126 25.8804 182.835 25.9547 182.46 26.0388C182.085 26.1293 181.63 26.1843 181.093 26.2037C180.097 26.2425 179.224 26.1099 178.474 25.806C177.731 25.5022 177.152 25.0302 176.738 24.3901C176.325 23.75 176.121 22.9418 176.127 21.9655V7.53448ZM185.753 26V11.1034H189.884V26H185.753ZM187.828 9.18319C187.214 9.18319 186.687 8.97953 186.248 8.5722C185.814 8.1584 185.598 7.66379 185.598 7.08836C185.598 6.5194 185.814 6.03125 186.248 5.62392C186.687 5.21013 187.214 5.00323 187.828 5.00323C188.443 5.00323 188.966 5.21013 189.4 5.62392C189.839 6.03125 190.059 6.5194 190.059 7.08836C190.059 7.66379 189.839 8.1584 189.4 8.5722C188.966 8.97953 188.443 9.18319 187.828 9.18319ZM199.925 26.2909C198.418 26.2909 197.115 25.9709 196.016 25.3308C194.924 24.6843 194.08 23.7856 193.485 22.6347C192.89 21.4774 192.593 20.1358 192.593 18.6099C192.593 17.0711 192.89 15.7263 193.485 14.5754C194.08 13.4181 194.924 12.5194 196.016 11.8793C197.115 11.2328 198.418 10.9095 199.925 10.9095C201.431 10.9095 202.731 11.2328 203.823 11.8793C204.922 12.5194 205.769 13.4181 206.364 14.5754C206.959 15.7263 207.256 17.0711 207.256 18.6099C207.256 20.1358 206.959 21.4774 206.364 22.6347C205.769 23.7856 204.922 24.6843 203.823 25.3308C202.731 25.9709 201.431 26.2909 199.925 26.2909ZM199.944 23.0905C200.629 23.0905 201.202 22.8966 201.661 22.5086C202.12 22.1142 202.466 21.5776 202.698 20.8987C202.938 20.2198 203.057 19.4472 203.057 18.5808C203.057 17.7144 202.938 16.9418 202.698 16.2629C202.466 15.5841 202.12 15.0474 201.661 14.653C201.202 14.2586 200.629 14.0614 199.944 14.0614C199.252 14.0614 198.67 14.2586 198.198 14.653C197.733 15.0474 197.38 15.5841 197.141 16.2629C196.908 16.9418 196.792 17.7144 196.792 18.5808C196.792 19.4472 196.908 20.2198 197.141 20.8987C197.38 21.5776 197.733 22.1142 198.198 22.5086C198.67 22.8966 199.252 23.0905 199.944 23.0905ZM214.074 17.3879V26H209.943V11.1034H213.88V13.7317H214.055C214.385 12.8653 214.938 12.18 215.713 11.6756C216.489 11.1649 217.43 10.9095 218.536 10.9095C219.57 10.9095 220.472 11.1358 221.241 11.5884C222.011 12.0409 222.609 12.6875 223.036 13.528C223.462 14.3621 223.676 15.3578 223.676 16.5151V26H219.544V17.2522C219.551 16.3405 219.318 15.6293 218.846 15.1185C218.374 14.6013 217.724 14.3427 216.897 14.3427C216.341 14.3427 215.849 14.4623 215.422 14.7015C215.002 14.9407 214.672 15.2899 214.433 15.7489C214.2 16.2015 214.081 16.7478 214.074 17.3879ZM239.326 15.3513L235.544 15.5841C235.479 15.2608 235.34 14.9698 235.127 14.7112C234.914 14.4461 234.632 14.236 234.283 14.0808C233.941 13.9192 233.53 13.8384 233.051 13.8384C232.411 13.8384 231.872 13.9741 231.432 14.2457C230.992 14.5108 230.772 14.8664 230.772 15.3125C230.772 15.6681 230.915 15.9687 231.199 16.2144C231.484 16.4601 231.972 16.6573 232.664 16.806L235.36 17.3491C236.808 17.6466 237.888 18.125 238.599 18.7845C239.31 19.444 239.666 20.3103 239.666 21.3836C239.666 22.3599 239.378 23.2166 238.803 23.9537C238.234 24.6907 237.451 25.2662 236.456 25.68C235.466 26.0873 234.325 26.2909 233.032 26.2909C231.06 26.2909 229.489 25.8804 228.319 25.0593C227.155 24.2317 226.473 23.1067 226.272 21.6843L230.336 21.4709C230.459 22.0722 230.756 22.5312 231.228 22.8481C231.7 23.1584 232.305 23.3136 233.042 23.3136C233.766 23.3136 234.348 23.1746 234.787 22.8966C235.234 22.6121 235.46 22.2468 235.466 21.8006C235.46 21.4256 235.301 21.1185 234.991 20.8793C234.681 20.6336 234.202 20.4461 233.556 20.3168L230.976 19.8028C229.521 19.5119 228.438 19.0075 227.727 18.2899C227.022 17.5722 226.67 16.6573 226.67 15.5453C226.67 14.5884 226.929 13.764 227.446 13.0722C227.97 12.3804 228.703 11.847 229.647 11.472C230.598 11.097 231.71 10.9095 232.984 10.9095C234.865 10.9095 236.346 11.3071 237.425 12.1024C238.512 12.8976 239.145 13.9806 239.326 15.3513Z" fill="white"/>
<g clip-path="url(#clip0_4_40)">
<rect x="-8.44824" y="-9" width="24" height="24" rx="6.82759" fill="#FFC530"/>
<rect x="-8.44824" y="18" width="24" height="24" rx="6.82759" fill="white"/>
<rect x="18.5518" y="-9" width="24" height="24" rx="6.82759" fill="white"/>
<rect x="18.5518" y="18" width="24" height="24" rx="6.82759" fill="white"/>
</g>
</g>
<defs>
<filter id="filter0_d_4_40" x="0" y="-3" width="245.552" height="41" filterUnits="userSpaceOnUse" color-interpolation-filters="sRGB">
<feFlood flood-opacity="0" result="BackgroundImageFix"/>
<feColorMatrix in="SourceAlpha" type="matrix" values="0 0 0 0 0 0 0 0 0 0 0 0 0 0 0 0 0 0 127 0" result="hardAlpha"/>
<feOffset dy="1"/>
<feGaussianBlur stdDeviation="2"/>
<feComposite in2="hardAlpha" operator="out"/>
<feColorMatrix type="matrix" values="0 0 0 0 0 0 0 0 0 0 0 0 0 0 0 0 0 0 0.4 0"/>
<feBlend mode="normal" in2="BackgroundImageFix" result="effect1_dropShadow_4_40"/>
<feBlend mode="normal" in="SourceGraphic" in2="effect1_dropShadow_4_40" result="shape"/>
</filter>
<clipPath id="clip0_4_40">
<rect width="26.1724" height="26.1724" fill="white" transform="matrix(-1 0 0 1 30.1725 3.41379)"/>
</clipPath>
</defs>
</svg>
