<svg width="48" height="48" viewBox="0 0 48 48" fill="none" xmlns="http://www.w3.org/2000/svg">
<g clip-path="url(#clip0_4_58)">
<path d="M0 23.6267C0.0332403 23.5983 0.0624749 23.5655 0.0869055 23.5292C0.447446 22.8083 1.04052 22.4726 1.70053 22.6299C2.39695 22.7919 2.75749 23.3425 2.82443 24.1562C2.94187 25.5533 2.96418 26.9833 3.29419 28.3334C5.47035 37.167 10.9865 42.8764 19.8861 44.7091C28.3664 46.455 35.3823 43.4529 40.8538 36.7937C40.9226 36.6942 40.9853 36.5907 41.0417 36.4837L38.99 36.6082C38.7246 36.6234 38.4592 36.654 38.195 36.6504C37.8302 36.6559 37.4773 36.5206 37.2098 36.2726C36.9423 36.0247 36.7807 35.6831 36.7587 35.3191C36.7492 35.1349 36.7762 34.9507 36.8383 34.777C36.9003 34.6034 36.996 34.4437 37.12 34.3072C37.244 34.1707 37.3938 34.06 37.5608 33.9816C37.7277 33.9032 37.9085 33.8586 38.0928 33.8503C39.589 33.7458 41.0863 33.6601 42.5837 33.5662C42.9113 33.5451 43.2378 33.5216 43.5655 33.5016C44.4756 33.4488 45.185 34.0816 45.1897 34.9868C45.2006 36.924 45.2006 38.8612 45.1897 40.7984C45.1897 41.666 44.5731 42.2882 43.7698 42.2777C42.9665 42.2671 42.4005 41.6554 42.3817 40.8101C42.3918 40.3345 42.3548 39.859 42.2713 39.3907C42.1926 39.4975 42.1233 39.6114 42.0364 39.71C38.2149 44.0055 33.4743 46.6612 27.8144 47.6771C27.0182 47.818 26.2102 47.8932 25.4081 48H22.5895C22.2666 47.9613 21.9448 47.9202 21.6207 47.8826C17.6676 47.4588 14.0094 46.1896 10.727 43.9437C5.10511 40.0951 1.60893 34.8201 0.369935 28.0892C0.206694 27.2028 0.11744 26.2988 0 25.4077V23.6267Z" fill="white"/>
<path d="M26.0094 20.371L28.1597 21.093C29.6536 21.5893 31.1497 22.0883 32.6483 22.59C33.9695 23.0326 34.2584 24.1773 33.2848 25.1529C28.7109 29.7294 24.1343 34.3027 19.5549 38.8729C18.7939 39.6337 17.9107 39.6607 17.313 38.9469C16.8432 38.3904 16.9336 37.8033 17.2366 37.1999C18.3782 34.93 19.5134 32.6559 20.6424 30.3775C21.0875 29.4852 21.5326 28.5952 22.0047 27.6513C21.8168 27.5809 21.6641 27.5198 21.5091 27.467C19.4672 26.7845 17.4253 26.1023 15.3834 25.4206C14.0317 24.9674 13.7452 23.8321 14.741 22.8377C19.3024 18.273 23.8661 13.7106 28.4322 9.15057C29.2167 8.36631 30.1069 8.33695 30.7058 9.07778C31.1474 9.62254 31.0734 10.1978 30.7763 10.786C29.962 12.4015 29.1525 14.0198 28.3476 15.6407C27.6359 17.0637 26.9254 18.4874 26.2161 19.9119C26.155 20.0446 26.0951 20.1843 26.0094 20.371Z" fill="white"/>
<path d="M6.95244 11.5222C7.71697 11.474 8.41222 11.4247 9.10746 11.3895C9.44921 11.3731 9.80153 11.3331 10.1327 11.3895C10.4657 11.4568 10.7627 11.6434 10.9678 11.9143C11.1728 12.1851 11.2719 12.5214 11.2464 12.8601C11.2209 13.1988 11.0725 13.5166 10.8291 13.7536C10.5858 13.9906 10.2642 14.1306 9.92484 14.1473C8.33471 14.26 6.74418 14.3579 5.15326 14.4409C4.72343 14.4643 4.27012 14.5183 3.86143 14.4138C3.15679 14.2319 2.81739 13.727 2.81386 12.9885C2.80525 11.0514 2.80525 9.11417 2.81386 7.17698C2.81856 6.33988 3.43042 5.7282 4.21609 5.72585C5.00177 5.72351 5.60188 6.33519 5.62537 7.17229C5.63712 7.6243 5.62537 8.07748 5.62537 8.65629C5.79214 8.47901 5.89196 8.37804 5.98591 8.27355C9.76747 4.03757 14.4298 1.33137 20.0329 0.369822C26.3958 -0.722048 32.2795 0.610503 37.5807 4.27355C42.815 7.89198 46.1398 12.8594 47.475 19.0878C47.8097 20.6481 47.8732 22.2718 47.9988 23.8709C48.0211 24.0626 48.0027 24.2568 47.9449 24.441C47.8871 24.6252 47.7912 24.7951 47.6633 24.9397C47.5355 25.0844 47.3786 25.2005 47.2029 25.2805C47.0272 25.3605 46.8366 25.4026 46.6436 25.4042C45.8274 25.4265 45.2132 24.7995 45.2014 23.8979C45.1415 19.3578 43.818 15.2216 41.1133 11.5773C37.495 6.70149 32.6753 3.71118 26.6189 3.01849C18.6906 2.11329 12.2502 4.99794 7.2202 11.1288C7.13447 11.2333 7.06753 11.3519 6.95244 11.5222Z" fill="white"/>
</g>
<defs>
<clipPath id="clip0_4_58">
<rect width="48" height="48" fill="white"/>
</clipPath>
</defs>
</svg>
